<?xml version="1.0" encoding="utf-8"?>
<svg viewBox="0 0 500 500" xmlns="http://www.w3.org/2000/svg">
  <defs>
    <linearGradient id="f9d7795c-47ab-4264-adf8-fc9a284cd87a" x1="491.14" y1="640.96" x2="698.09" y2="640.96" gradientUnits="userSpaceOnUse" gradientTransform="matrix(0.513599, 0, 0, 0.576277, -49.356323, -9.324425)">
      <stop offset="0" stop-color="gray" stop-opacity="0.25"/>
      <stop offset="0.54" stop-color="gray" stop-opacity="0.12"/>
      <stop offset="1" stop-color="gray" stop-opacity="0.1"/>
    </linearGradient>
  </defs>
  <path d="M 300.805 72.266 C 267.565 70.968 235.907 58.931 205.677 45.756 C 175.446 32.583 145.503 17.985 113.059 11.007 C 92.192 6.518 68.324 5.885 51.514 18.435 C 35.331 30.538 30.103 51.37 27.294 70.72 C 25.177 85.278 23.934 100.601 29.728 114.225 C 33.754 123.687 40.894 131.639 45.834 140.704 C 63.024 172.239 50.873 211.126 32.25 241.916 C 23.519 256.363 13.375 270.153 6.632 285.517 C -0.112 300.88 -3.23 318.508 2.671 334.195 C 8.516 349.756 22.45 361.418 37.545 369.631 C 68.202 386.313 104.312 391.086 139.551 393.789 C 217.53 399.775 295.921 397.181 374.106 394.589 C 403.042 393.627 432.102 392.653 460.565 387.633 C 476.374 384.844 492.69 380.425 504.17 369.74 C 518.736 356.179 522.346 333.221 512.582 316.215 C 496.209 287.694 450.951 280.614 439.492 250.007 C 433.195 233.157 439.662 214.393 448.82 198.765 C 468.459 165.247 501.376 135.84 503.107 97.53 C 504.298 71.217 488.474 44.863 464.007 32.411 C 438.362 19.363 402.795 21 383.886 42.606 C 364.394 64.848 330.157 73.407 300.805 72.266 Z" opacity="0.1" style="fill: rgb(233, 185, 73);"/>
  <ellipse cx="247.874" cy="458.135" rx="156.119" ry="23.697" opacity="0.1" style="fill: rgb(233, 185, 73);"/>
  <path d="M 170.588 387.587 C 170.588 387.587 181.373 385.652 187.844 394.204 C 187.844 394.204 183.099 398.399 172.888 392.589 Z" style="fill: rgb(233, 185, 73);"/>
  <path d="M 169.437 387.398 C 169.437 387.398 162.555 396.952 165.929 407.48 C 165.929 407.48 171.538 404.961 172.148 392.134 Z" style="fill: rgb(233, 185, 73);"/>
  <path d="M 163.274 371.775 C 163.274 371.775 167.588 362.9 184.845 375.324 C 184.845 375.324 182.544 381.295 174.922 380.81 C 167.3 380.326 165.262 376.453 163.274 371.775 Z" style="fill: rgb(233, 185, 73);"/>
  <path d="M 162.139 371.134 C 162.139 371.134 153.186 369.982 152.318 392.977 C 152.318 392.977 157.994 394.302 162.026 387.023 C 166.058 379.744 164.388 375.676 162.139 371.134 Z" style="fill: rgb(233, 185, 73);"/>
  <path d="M 156.921 352.798 C 156.921 352.798 161.954 337.14 180.223 348.274 C 180.223 348.274 176.052 362.641 158.79 358.122 Z" style="fill: rgb(233, 185, 73);"/>
  <path d="M 151.312 329.395 C 151.312 329.395 160.803 313.581 177.634 328.241 C 177.634 328.241 171.738 343.087 152.751 335.02 Z" style="fill: rgb(233, 185, 73);"/>
  <path d="M 149.299 307.127 C 149.299 307.127 160.372 292.605 177.033 307.127 C 177.033 307.127 166.53 319.874 149.299 310.838 Z" style="fill: rgb(233, 185, 73);"/>
  <path d="M 147.573 285.506 C 147.573 285.506 158.79 270.333 174.758 284.698 C 174.758 284.698 162.098 298.091 147.573 289.056 Z" style="fill: rgb(233, 185, 73);"/>
  <path d="M 148.579 266.298 C 148.579 266.298 160.392 246.774 175.333 260.005 C 175.333 260.005 162.673 276.793 148.579 270.009 Z" style="fill: rgb(233, 185, 73);"/>
  <path d="M 151.312 243.869 C 151.312 243.869 163.823 224.506 178.353 239.351 C 178.353 239.351 163.535 256.134 151.312 247.42 Z" style="fill: rgb(233, 185, 73);"/>
  <path d="M 155.488 223.821 C 155.488 223.821 170.295 205.629 183.222 212.871 C 183.222 212.871 167.783 232.194 154.841 228.645 Z" style="fill: rgb(233, 185, 73);"/>
  <path d="M 160.66 204.82 C 160.66 204.82 177.777 182.548 187.701 189.969 C 187.701 189.969 175.107 207.258 159.453 209.016 Z" style="fill: rgb(233, 185, 73);"/>
  <path d="M 168.133 182.772 C 168.133 182.772 183.099 164.574 194.028 169.092 C 194.028 169.092 181.229 187.976 166.124 188.46 Z" style="fill: rgb(233, 185, 73);"/>
  <path d="M 174.902 162.153 C 174.902 162.153 191.44 144.726 198.63 147.793 C 198.63 147.793 186.694 167.155 174.182 166.026 Z" style="fill: rgb(233, 185, 73);"/>
  <path d="M 181.516 143.114 C 181.516 143.114 195.754 122.298 203.519 123.912 C 203.519 123.912 194.89 142.467 181.516 145.234 Z" fill="#2caeba" style=""/>
  <path d="M 188.692 117.458 C 188.692 117.458 201.28 101.495 208.075 101.535 C 208.075 101.535 198.142 122.857 188.178 122.662 Z" fill="#2caeba" style=""/>
  <path d="M 192.949 100.348 L 205.101 67.107 C 205.101 67.107 205.713 97.155 191.399 106.515 Z" style="fill: rgb(233, 185, 73);"/>
  <path d="M 197.88 63.691 C 197.88 63.691 199.894 35.936 198.599 33.677 C 198.599 33.677 207.294 56.729 197.798 75.954 Z" style="fill: rgb(233, 185, 73);"/>
  <path d="M 156.453 352.423 C 156.453 352.423 143.844 343.658 135.689 365.102 C 135.689 365.102 146.905 373.457 157.932 357.892 Z" style="fill: rgb(233, 185, 73);"/>
  <path d="M 150.912 328.501 C 150.912 328.501 135.452 320.589 127.948 342.978 C 127.948 342.978 139.895 352.199 152.318 334.16 Z" style="fill: rgb(233, 185, 73);"/>
  <path d="M 148.579 308.459 C 148.579 308.459 137.506 293.936 120.845 308.459 C 120.845 308.459 131.344 321.206 148.579 312.171 Z" style="fill: rgb(233, 185, 73);"/>
  <path d="M 147.198 285.506 C 147.198 285.506 135.976 270.333 120.013 284.698 C 120.013 284.698 132.668 298.091 147.198 289.056 Z" style="fill: rgb(233, 185, 73);"/>
  <path d="M 148.579 266.851 C 148.579 266.851 140.712 244.981 123.609 254.386 C 123.609 254.386 132.853 273.784 147.886 270.482 Z" style="fill: rgb(233, 185, 73);"/>
  <path d="M 152.303 243.76 C 152.303 243.76 144.487 221.51 127.137 231.825 C 127.137 231.825 137.759 252.22 151.533 247.2 Z" style="fill: rgb(233, 185, 73);"/>
  <path d="M 157.152 223.936 C 157.152 223.936 154.07 199.536 139.715 197.352 C 139.715 197.352 142.76 223.077 155.236 228.326 Z" style="fill: rgb(233, 185, 73);"/>
  <path d="M 161.029 204.86 C 161.029 204.86 159.822 175.471 147.933 174.45 C 147.933 174.45 148.333 196.753 159.689 209.027 Z" style="fill: rgb(233, 185, 73);"/>
  <path d="M 169.37 181.931 C 169.37 181.931 165.821 157.497 154.476 154.506 C 154.476 154.506 155.883 178.174 168.245 187.931 Z" style="fill: rgb(233, 185, 73);"/>
  <path d="M 176.247 162.331 C 176.247 162.331 176.124 136.872 169.19 133.132 C 169.19 133.132 164.892 156.183 174.239 165.582 Z" style="fill: rgb(233, 185, 73);"/>
  <path d="M 182.046 142.813 C 182.046 142.813 181.07 116.593 173.895 112.898 C 173.895 112.898 171.435 133.645 180.967 144.524 Z" style="fill: rgb(233, 185, 73);"/>
  <path d="M 189.699 119.531 C 189.699 119.531 189.652 98.209 184.526 93.207 C 184.526 93.207 179.432 116.57 187.023 123.819 Z" style="fill: rgb(233, 185, 73);"/>
  <path d="M 192.344 99.299 L 187.361 63.805 C 187.361 63.805 180.582 92.891 192.58 105.701 Z" style="fill: rgb(233, 185, 73);"/>
  <path d="M 193.32 64.026 C 193.32 64.026 180.515 40.172 180.782 37.516 C 180.782 37.516 182.138 62.526 198.245 74.974 Z" style="fill: rgb(233, 185, 73);"/>
  <path d="M 194.819 56.983 C 194.819 56.983 182.739 23.093 177.275 20.348 C 177.275 20.348 194.531 30.192 195.825 56.015 Z" style="fill: rgb(233, 185, 73);"/>
  <path d="M 188.111 122.846 L 187.284 122.563 C 197.479 85.26 200.027 61.477 194.449 55.518 L 195.045 54.815 C 200.952 61.102 198.558 84.609 188.111 122.846 Z" fill="#444053" style=""/>
  <path d="M 160.038 210.163 L 158.821 209.678 C 159.899 206.262 161.065 202.793 162.288 199.369 C 172.93 169.61 181.99 141.932 187.798 120.678 L 188.861 120.103 C 183.042 141.395 174.147 170.14 163.49 199.933 C 162.273 203.322 161.112 206.781 160.038 210.163 Z" fill="#444053" style=""/>
  <path d="M 185.765 415.507 C 185.6 415.302 169.072 394.427 157.558 358.779 C 150.805 337.916 147.044 315.984 146.413 293.799 C 145.622 266.061 150.809 235.092 159.694 206.965 L 160.66 208.231 C 140.716 271.369 148.641 325.476 159.149 358.065 C 170.552 393.384 186.884 414.038 187.048 414.24 Z" fill="#444053" style=""/>
  <rect x="329.695" y="175.085" width="4.551" height="42.079" rx="2.29" ry="2.29" fill="#3a3768" style=""/>
  <rect x="178.476" y="142.116" width="2.553" height="13.854" rx="2.29" ry="2.29" fill="#3a3768" style=""/>
  <rect x="178.384" y="167.484" width="2.876" height="24.11" rx="2.29" ry="2.29" fill="#3a3768" style=""/>
  <rect x="178.43" y="200.031" width="2.738" height="24.32" rx="2.29" ry="2.29" fill="#3a3768" style=""/>
  <rect x="179.919" y="96.336" width="152.231" height="347.144" rx="38.99" ry="38.99" fill="#3a3768" style=""/>
  <path d="M 310.677 105.355 L 293.214 105.355 L 293.214 107.712 C 293.214 113.883 288.755 118.883 283.256 118.881 L 227.72 118.881 C 222.221 118.883 217.762 113.883 217.762 107.712 L 217.762 105.355 L 201.413 105.355 C 194.737 105.355 189.323 111.429 189.323 118.921 L 189.323 420.873 C 189.323 428.365 194.737 434.439 201.413 434.439 L 310.677 434.439 C 317.354 434.439 322.767 428.365 322.767 420.873 L 322.767 118.945 C 322.778 111.444 317.362 105.355 310.677 105.355 Z" style="fill: rgb(233, 185, 73);"/>
  <rect x="241.351" y="106.704" width="21.258" height="4.84" rx="3.87" ry="3.87" fill="#e6e8ec" style=""/>
  <circle cx="523.21" cy="175.36" r="4.77" fill="#e6e8ec" transform="matrix(0.513599, 0, 0, 0.576277, -0.446338, 8.067649)" style=""/>
  <path d="M 384.856 81.112 C 384.856 81.112 341.611 78.183 346.706 112.185 C 346.706 112.185 345.678 118.195 350.547 120.92 C 350.547 120.92 350.624 118.402 354.985 119.262 C 356.537 119.549 358.114 119.635 359.684 119.515 C 361.802 119.358 363.817 118.433 365.426 116.881 L 365.426 116.881 C 365.426 116.881 377.583 111.245 382.308 88.953 C 382.308 88.953 385.806 84.09 385.667 82.839 L 378.369 86.338 C 378.369 86.338 380.865 92.244 378.882 97.155 C 378.882 97.155 378.646 86.551 377.244 86.782 C 376.961 86.827 373.454 88.828 373.454 88.828 C 373.454 88.828 377.742 99.114 374.507 106.595 C 374.507 106.595 375.734 93.917 372.113 89.57 L 366.978 92.936 C 366.978 92.936 371.99 103.562 368.59 112.236 C 368.59 112.236 369.463 98.935 365.894 93.755 L 361.241 97.829 C 361.241 97.829 365.95 108.3 363.079 115.492 C 363.079 115.492 362.704 100.013 360.234 98.844 C 360.234 98.844 356.161 102.878 355.539 104.525 C 355.539 104.525 358.765 112.132 356.762 116.144 C 356.762 116.144 355.535 105.829 354.528 105.77 C 354.528 105.77 350.47 112.605 350.049 117.296 C 350.049 117.296 350.224 110.328 353.547 105.124 C 353.547 105.124 349.623 105.879 347.332 108.732 C 347.332 108.732 347.964 103.903 354.549 103.477 C 354.549 103.477 357.902 98.289 358.795 97.98 C 358.795 97.98 352.252 97.363 348.282 99.339 C 348.282 99.339 351.775 94.782 359.997 96.855 L 364.594 92.643 C 364.594 92.643 355.976 91.323 352.319 92.781 C 352.319 92.781 356.526 88.748 365.832 91.686 L 370.835 88.333 C 370.835 88.333 363.485 86.556 359.109 87.179 C 359.109 87.179 363.731 84.385 372.303 87.415 L 375.898 85.612 C 375.898 85.612 370.516 84.425 368.939 84.235 C 367.362 84.044 367.28 83.56 367.28 83.56 C 370.69 82.923 374.191 83.36 377.393 84.823 C 377.393 84.823 384.985 81.647 384.856 81.112 Z" style="fill: rgb(233, 185, 73);"/>
  <path d="M 340.497 65.99 C 340.497 65.99 320.979 64.67 323.26 80.034 C 323.26 80.034 322.803 82.748 324.995 83.981 C 324.995 83.981 325.031 82.828 327.004 83.225 C 327.704 83.358 328.417 83.398 329.126 83.342 C 330.083 83.271 330.994 82.848 331.719 82.142 L 331.719 82.142 C 331.719 82.142 337.214 79.596 339.351 69.523 C 339.351 69.523 340.927 67.328 340.866 66.761 L 337.569 68.341 C 337.569 68.341 338.693 71.01 337.81 73.229 C 337.81 73.229 337.703 68.44 337.071 68.549 C 336.942 68.549 335.355 69.475 335.355 69.475 C 335.355 69.475 337.296 74.126 335.833 77.504 C 335.833 77.504 336.387 71.776 334.749 69.81 L 332.427 71.356 C 332.427 71.356 334.693 76.156 333.157 80.074 C 333.157 80.074 333.552 74.062 331.94 71.723 L 329.839 73.567 C 329.839 73.567 331.965 78.298 330.671 81.549 C 330.671 81.549 330.497 74.554 329.382 74.022 C 329.382 74.022 327.543 75.844 327.261 76.592 C 327.261 76.592 328.719 80.051 327.815 81.844 C 327.815 81.844 327.261 77.18 326.788 77.158 C 326.788 77.158 324.954 80.247 324.765 82.344 C 324.856 80.388 325.402 78.495 326.347 76.847 C 325.289 77.071 324.312 77.639 323.538 78.478 C 323.538 78.478 323.825 76.294 326.798 76.105 C 326.798 76.105 328.34 73.758 328.719 73.615 C 328.719 73.615 325.761 73.338 323.968 74.23 C 323.968 74.23 325.546 72.173 329.259 73.107 L 331.313 71.205 C 331.313 71.205 327.415 70.629 325.766 71.268 C 325.766 71.268 327.666 69.448 331.873 70.773 L 334.133 69.257 C 334.133 69.257 330.81 68.456 328.832 68.744 C 328.832 68.744 330.923 67.482 334.796 68.847 L 336.413 68.036 C 336.413 68.036 333.979 67.5 333.265 67.413 C 332.55 67.328 332.515 67.107 332.515 67.107 C 334.057 66.82 335.639 67.02 337.086 67.684 C 337.086 67.684 340.558 66.232 340.497 65.99 Z" style="fill: rgb(233, 185, 73);"/>
  <rect x="202.893" y="138.41" width="106.289" height="253.125" opacity="0.1" style="fill: rgb(119, 107, 43);"/>
  <path d="M 305.926 462.199 C 305.926 462.199 303.419 455.652 302.3 452.632 C 301.668 450.903 300.6 450.615 299.783 450.655 L 299.83 450.078 L 300.03 447.353 L 300.071 446.776 C 302.007 446.321 303.666 445.965 303.666 445.965 L 302.459 376.051 C 302.459 376.051 301.946 375.312 300.703 370.863 C 300.086 368.646 297.108 365.919 294.324 363.746 C 293.887 363.407 293.461 363.083 293.039 362.772 C 294.053 361.82 295.118 360.939 296.23 360.133 C 297.811 359.101 298.334 353.218 298.334 353.218 L 298.073 353.795 C 298.334 353.218 298.073 338.194 298.073 338.194 L 297.149 322.6 C 297.149 322.6 296.491 304.062 291.355 299.203 C 286.219 294.345 279.732 292.645 279.732 292.645 L 276.137 291.608 L 276.137 291.608 L 269.512 289.7 C 269.326 289.36 269.147 289.005 268.998 288.628 C 268.932 288.486 268.87 288.335 268.808 288.186 C 272.916 284.922 275.357 279.627 275.357 273.981 C 275.357 273.045 275.291 272.113 275.156 271.19 C 275.156 271.018 275.099 270.839 275.068 270.666 C 275.613 270.248 276.128 269.783 276.61 269.277 C 277.394 268.577 278.035 267.694 278.489 266.689 L 278.489 266.689 C 278.56 266.494 278.619 266.29 278.664 266.085 C 278.664 266.028 278.664 265.97 278.694 265.906 C 278.726 265.843 278.741 265.601 278.756 265.446 C 278.756 265.388 278.756 265.329 278.756 265.273 C 278.756 265.106 278.756 264.933 278.756 264.765 C 278.756 264.725 278.756 264.685 278.756 264.638 C 278.756 264.448 278.73 264.259 278.705 264.063 C 278.707 264.05 278.707 264.039 278.705 264.028 L 278.705 264.028 C 278.611 263.358 278.456 262.703 278.243 262.068 C 277.729 260.582 277.061 259.186 276.82 257.603 C 276.522 255.73 276.866 253.684 276.07 252 C 275.401 250.713 274.254 249.827 272.943 249.586 C 271.639 249.361 270.305 249.532 269.08 250.082 C 268.482 250.4 267.835 250.597 267.175 250.659 C 266.695 250.628 266.223 250.498 265.783 250.278 C 264.258 249.606 262.809 248.735 261.469 247.679 C 260.504 246.823 259.472 246.068 258.387 245.42 C 257.283 244.772 255.98 244.714 254.833 245.258 C 252.933 246.343 252.573 249.361 250.806 250.693 C 249.589 251.614 248.003 251.523 246.533 251.58 C 245.064 251.638 243.401 252.047 242.676 253.476 C 242.162 254.468 242.286 255.648 242.383 256.807 L 242.415 257.199 C 242.415 257.337 242.415 257.481 242.445 257.619 C 242.526 259.101 242.328 260.586 241.864 261.977 C 241.156 264.086 239.81 266.165 239.856 268.315 L 239.856 268.315 C 239.86 268.657 239.901 268.997 239.974 269.328 C 240.015 269.496 240.063 269.66 240.118 269.82 L 240.118 269.82 C 240.401 270.532 240.718 271.227 241.069 271.899 L 241.114 271.991 C 241.15 272.071 241.186 272.153 241.217 272.233 C 241.248 272.315 241.31 272.454 241.346 272.563 C 241.382 272.672 241.387 272.672 241.403 272.723 C 241.418 272.776 241.47 272.936 241.495 273.047 C 241.58 273.371 241.617 273.71 241.603 274.05 C 241.542 274.485 241.51 274.927 241.505 275.37 C 241.509 275.825 241.795 276.216 242.193 276.307 C 242.405 276.302 242.611 276.231 242.789 276.101 C 243.25 275.806 243.688 275.468 244.099 275.093 C 244.099 275.277 244.099 275.461 244.13 275.668 C 244.488 279.793 246.142 283.641 248.798 286.52 C 248.798 286.699 248.798 286.882 248.762 287.095 C 248.726 287.308 248.736 287.51 248.726 287.723 L 248.726 287.723 L 242.974 289.753 C 242.974 289.753 243.004 289.868 243.066 290.064 L 242.46 290.334 L 242.46 290.334 C 239.477 291.69 236.154 293.371 234.294 294.899 C 233.473 295.567 232.723 296.115 232.05 296.57 C 229.607 298.248 227.735 300.792 226.729 303.803 L 226.652 304.021 C 226.138 305.341 223.622 314.318 223.622 314.318 C 223.622 314.318 221.778 319.322 221.511 322.56 C 221.511 322.56 218.48 333.296 219.271 340.362 C 219.271 340.362 216.899 350.515 217.823 352.129 C 217.823 352.129 216.878 356.498 221.028 360.894 C 220.725 361.101 220.396 361.327 220.052 361.575 C 216.837 363.844 212.199 367.527 211.408 370.368 C 210.181 374.787 209.652 375.556 209.652 375.556 L 208.409 445.359 C 208.409 445.359 210.068 445.717 212.004 446.167 L 212.045 446.742 L 212.246 449.461 L 212.292 450.038 C 211.475 449.998 210.407 450.315 209.775 452.02 C 208.651 455.035 206.18 461.577 206.18 461.577 C 206.18 461.577 200.648 467.338 204.002 472.687 C 204.15 472.931 204.323 473.155 204.516 473.355 C 206.924 475.809 212.061 474.236 215.712 472.634 C 217.569 471.746 219.168 470.297 220.334 468.451 C 220.632 468.013 221.079 467.736 221.567 467.683 C 222.404 467.532 223.195 467.146 223.863 466.56 C 224.681 465.89 225.152 464.813 225.126 463.679 C 225.124 463.65 225.124 463.621 225.126 463.593 L 224.803 455.393 C 224.803 455.393 224.408 449.665 223.149 450.033 L 222.826 450.12 L 222.739 449.543 L 222.739 449.543 L 222.569 448.431 L 222.482 447.854 L 223.18 447.854 C 223.18 447.854 223.355 441.378 225.466 436.283 C 227.577 431.188 228.963 390.037 228.963 390.037 C 228.963 390.037 255.09 390.516 255.963 387.765 L 255.963 387.765 C 256.477 387.765 257.036 387.765 257.57 387.725 C 258.449 390.474 283.106 390.607 283.106 390.607 C 283.106 390.607 284.509 431.805 286.615 436.906 C 287.059 437.998 287.428 439.126 287.719 440.282 L 287.719 440.282 C 288.381 442.954 288.78 445.701 288.906 448.471 L 289.604 448.471 L 289.511 449.048 L 289.342 450.153 L 289.254 450.73 L 288.921 450.644 C 287.673 450.28 287.277 456.009 287.277 456.009 L 286.943 464.261 C 286.89 465.392 287.35 466.477 288.165 467.143 C 288.845 467.742 289.649 468.137 290.503 468.295 C 290.991 468.34 291.44 468.615 291.735 469.056 C 292.903 470.901 294.502 472.349 296.358 473.24 C 300.302 474.968 305.972 476.657 308.078 473.297 C 311.457 467.938 305.926 462.199 305.926 462.199 Z M 239.518 359.425 L 239.518 359.425 L 239.58 359.425 Z M 280.785 335.866 C 280.785 335.866 281.448 338.662 282.629 340.131 C 283.811 341.6 283.224 350.73 283.224 350.73 C 282.76 350.761 282.299 350.844 281.848 350.975 C 280.939 344.909 280.102 338.172 280.785 335.866 Z" fill="url(#f9d7795c-47ab-4264-adf8-fc9a284cd87a)" style=""/>
  <polygon points="223.975 450.897 213.647 452.05 213.36 448.171 213.16 445.502 212.877 441.602 222.636 442.179 223.411 447.186 223.575 448.275 223.581 448.275 223.975 450.897" fill="#8e6f7f" style=""/>
  <polygon points="299.193 442.184 298.91 446.079 298.715 448.748 298.422 452.627 288.088 451.473 288.5 448.852 288.659 447.769 289.434 442.759 299.193 442.184" fill="#8e6f7f" style=""/>
  <path d="M 288.248 386.06 L 257.535 387.68 C 256.138 387.756 254.741 387.756 253.344 387.68 L 224.001 386.065 L 224.001 359.984 L 288.248 359.984 Z" fill="#5f5570" style=""/>
  <path d="M 288.248 386.06 L 257.535 387.68 C 256.138 387.756 254.741 387.756 253.344 387.68 L 224.001 386.065 L 224.001 359.984 L 288.248 359.984 Z" opacity="0.1" style=""/>
  <path d="M 248.916 289.713 C 248.916 289.713 238.686 293.568 234.834 296.737 C 234.033 297.394 233.293 297.937 232.646 298.379 C 230.266 300.026 228.446 302.516 227.474 305.456 C 227.448 305.538 227.423 305.607 227.397 305.669 C 226.883 306.967 224.444 315.755 224.444 315.755 C 224.444 315.755 222.646 320.653 222.389 323.822 C 222.132 326.992 237.026 335.493 237.026 335.493 C 237.026 335.493 229.836 353.069 233.047 357.535 C 236.256 362 283.123 364.161 282.095 357.535 C 281.068 350.906 279.27 339.958 280.169 336.933 L 296.091 323.965 C 296.091 323.965 295.448 305.814 290.441 301.06 C 285.433 296.306 279.142 294.576 279.142 294.576 L 269.172 291.695 C 269.172 291.695 265.66 301.491 261.808 302.787 C 257.955 304.085 249.517 298.097 248.916 289.713 Z" fill="#eaeaf2" style=""/>
  <path d="M 263.287 306.211 C 263.287 306.211 258.941 310.279 256.662 306.211 C 256.662 306.211 254.607 313.092 256.662 315.398 L 256.585 315.864 L 256.219 317.915 L 251.463 362.29 L 255.377 369.867 L 262.501 359.84 L 261.926 318.348 L 261.669 315.967 L 261.607 315.392 L 262.825 315.392 C 262.825 315.392 266.055 309.127 263.287 306.211 Z" opacity="0.1" style=""/>
  <path d="M 264.314 306.211 C 264.314 306.211 259.969 310.279 257.688 306.211 C 257.688 306.211 255.635 313.092 257.688 315.398 L 257.612 315.864 L 257.247 317.915 L 252.491 362.29 L 256.405 369.867 L 263.528 359.84 L 262.953 318.348 L 262.696 315.967 L 262.635 315.392 L 263.852 315.392 C 263.852 315.392 267.083 309.127 264.314 306.211 Z" opacity="0.1" style=""/>
  <polygon points="263.015 359.268 255.891 369.279 251.967 361.742 256.728 317.345 257.092 315.292 257.175 314.821 257.817 312.953 262.121 314.821 262.183 315.398 262.44 317.777 263.015 359.268" fill="#bc8487" style=""/>
  <path d="M 223.411 447.181 C 221.194 447.164 218.985 446.911 216.811 446.425 C 215.738 446.127 214.393 445.792 213.165 445.497 L 212.877 441.596 L 222.636 442.173 Z" opacity="0.1" style=""/>
  <path d="M 255.968 387.731 C 255.116 390.423 229.651 389.95 229.651 389.95 C 229.651 389.95 228.286 430.289 226.231 435.286 C 224.176 440.282 224.001 446.616 224.001 446.616 C 224.001 446.616 219.554 446.616 216.811 445.848 C 214.069 445.084 209.621 444.121 209.621 444.121 L 210.823 375.688 C 210.823 375.688 211.336 374.966 212.533 370.639 C 213.303 367.856 217.823 364.248 220.951 361.995 C 222.698 360.761 224.001 359.955 224.001 359.955 L 239.194 360.646 L 248.572 361.072 C 248.572 361.072 256.826 385.041 255.968 387.731 Z" fill="#5f5570" style=""/>
  <path d="M 223.981 450.892 L 213.647 452.044 L 213.355 448.165 C 213.742 448.178 214.123 448.273 214.479 448.442 C 216.364 449.964 221.753 448.753 223.576 448.269 L 223.576 448.269 Z" opacity="0.1" style=""/>
  <path d="M 225.933 462.101 C 225.958 463.211 225.495 464.263 224.695 464.918 C 224.045 465.49 223.277 465.869 222.461 466.018 C 221.985 466.065 221.55 466.336 221.264 466.768 C 220.123 468.575 218.558 469.991 216.745 470.865 C 213.185 472.432 208.178 473.97 205.831 471.568 C 205.637 471.375 205.464 471.156 205.317 470.918 C 202.045 465.661 207.438 460.037 207.438 460.037 C 207.438 460.037 209.872 453.63 210.966 450.679 C 211.467 449.055 213.113 448.282 214.495 449.019 C 216.549 450.679 222.779 449.088 223.996 448.737 C 225.214 448.384 225.604 453.986 225.604 453.986 L 225.933 462.013 C 225.93 462.043 225.93 462.072 225.933 462.101 Z" fill="#bc8487" style=""/>
  <path d="M 299.198 442.179 L 298.91 446.074 C 297.682 446.367 296.342 446.702 295.259 447.002 C 293.086 447.488 290.879 447.743 288.664 447.763 L 289.44 442.754 Z" opacity="0.1" style=""/>
  <path d="M 302.459 444.696 C 302.459 444.696 298.011 445.659 295.268 446.425 C 292.526 447.191 288.078 447.191 288.078 447.191 C 288.078 447.191 287.909 440.854 285.855 435.863 C 283.8 430.872 282.429 390.527 282.429 390.527 C 282.429 390.527 258.403 390.37 257.545 387.68 C 256.687 384.988 268.017 361.747 268.017 361.747 L 274.925 361.343 L 288.078 360.561 C 288.078 360.561 290.646 362.128 293.338 364.243 C 296.029 366.358 298.951 369.043 299.552 371.216 C 300.749 375.543 301.262 376.264 301.262 376.264 Z" fill="#5f5570" style=""/>
  <path d="M 298.715 448.742 L 298.427 452.619 L 288.088 451.467 L 288.5 448.846 C 290.323 449.336 295.69 450.539 297.59 449.019 C 297.946 448.848 298.328 448.755 298.715 448.742 Z" opacity="0.1" style=""/>
  <path d="M 297.59 449.594 C 298.973 448.853 300.623 449.629 301.124 451.254 C 302.212 454.205 304.653 460.619 304.653 460.619 C 304.653 460.619 310.045 466.238 306.773 471.493 C 304.719 474.789 299.193 473.137 295.351 471.442 C 293.535 470.572 291.971 469.154 290.831 467.345 C 290.544 466.913 290.107 466.64 289.63 466.595 C 288.795 466.431 288.01 466.036 287.349 465.443 C 286.559 464.786 286.114 463.732 286.163 462.63 L 286.486 454.561 C 286.486 454.561 286.871 448.955 288.088 449.307 C 289.306 449.658 295.536 451.254 297.59 449.594 Z" fill="#bc8487" style=""/>
  <path d="M 271.042 294.576 L 260.672 306.908 L 260.385 307.254 L 260.01 307.007 C 257.842 305.565 247.001 298.224 247.93 296.016 C 248.444 294.76 248.747 292.145 248.906 289.891 C 248.906 289.62 248.937 289.354 248.958 289.096 C 249.061 287.316 249.086 285.932 249.086 285.932 C 249.086 285.932 268.603 282.186 267.833 285.932 C 267.519 287.449 267.987 289.154 268.649 290.647 C 268.844 291.078 269.059 291.488 269.27 291.873 C 269.789 292.831 270.382 293.736 271.042 294.576 Z" fill="#ffc4d0" style=""/>
  <path d="M 268.649 290.647 C 262.635 295.618 254.293 294.962 248.958 289.096 C 249.061 287.316 249.086 285.932 249.086 285.932 C 249.086 285.932 268.603 282.186 267.833 285.932 C 267.534 287.459 267.987 289.154 268.649 290.647 Z" opacity="0.1" style=""/>
  <path d="M 274.848 276.302 C 275.015 289.463 262.423 297.893 252.18 291.475 C 247.743 288.694 244.833 283.612 244.423 277.927 C 244.382 277.39 244.361 276.848 244.361 276.302 C 244.145 263.143 256.707 254.656 266.973 261.026 C 271.911 264.092 274.936 269.971 274.833 276.302 Z" fill="#ffc4d0" style=""/>
  <path d="M 274.658 273.571 C 273.856 274.303 272.814 274.62 271.792 274.441 C 269.44 273.864 268.633 269.831 266.23 269.554 C 263.826 269.277 262.229 273.012 259.794 272.936 C 258.767 272.909 257.842 272.153 256.897 271.629 C 255.244 270.712 252.522 270.153 250.735 270.845 C 248.048 271.877 247.14 274.665 245.424 276.884 C 245.131 277.263 244.81 277.61 244.463 277.927 C 244.423 277.39 244.402 276.848 244.402 276.302 C 244.295 263.142 256.927 254.785 267.139 261.263 C 271.211 263.846 274 268.382 274.704 273.571 Z" opacity="0.1" style=""/>
  <path d="M 256.897 271.058 C 257.842 271.576 258.746 272.337 259.794 272.366 C 262.224 272.435 263.811 268.684 266.224 268.977 C 268.639 269.272 269.434 273.271 271.797 273.864 C 273.384 274.268 274.878 272.936 276.065 271.698 C 276.832 271.014 277.458 270.149 277.899 269.168 C 278.412 267.739 278.146 266.09 277.668 264.638 C 277.19 263.187 276.517 261.793 276.281 260.264 C 275.993 258.433 276.327 256.427 275.551 254.778 C 274.902 253.518 273.782 252.65 272.501 252.417 C 271.23 252.195 269.931 252.36 268.736 252.894 C 268.155 253.21 267.526 253.405 266.882 253.471 C 266.412 253.438 265.951 253.311 265.521 253.096 C 264.035 252.439 262.626 251.585 261.32 250.555 C 260.384 249.716 259.381 248.975 258.326 248.341 C 257.251 247.708 255.98 247.652 254.864 248.185 C 253.015 249.246 252.661 252.22 250.94 253.505 C 249.754 254.405 248.208 254.312 246.779 254.375 C 245.352 254.437 243.698 254.825 243.02 256.225 C 242.415 257.43 242.717 258.91 242.794 260.287 C 242.871 261.738 242.677 263.191 242.224 264.552 C 241.429 266.938 239.81 269.288 240.386 271.757 C 240.761 273.375 242.054 274.718 241.977 276.365 C 241.917 276.791 241.884 277.221 241.88 277.65 C 241.884 278.098 242.164 278.48 242.553 278.573 C 242.759 278.57 242.959 278.499 243.128 278.366 C 243.982 277.831 244.748 277.135 245.393 276.307 C 247.129 274.083 248.028 271.3 250.714 270.269 C 252.527 269.594 255.244 270.137 256.897 271.058 Z" style="" fill="#8e6f7f"/>
  <path d="M 274.57 371.653 L 271.797 372.499 L 265.393 374.478 C 263.911 375.716 262.242 376.646 260.467 377.226 C 256.548 378.339 254.017 375.918 251.911 372.172 C 251.063 370.674 251.489 369.474 252.599 368.537 C 255.27 366.271 261.874 365.533 263.898 365.834 C 265.227 365.956 266.563 365.721 267.797 365.153 C 268.672 364.796 269.516 364.347 270.318 363.815 Z" fill="#ffc4d0" style=""/>
  <path d="M 274.57 371.653 L 271.797 372.499 C 271.001 369.809 269.692 366.433 267.817 365.135 C 268.693 364.778 269.537 364.33 270.338 363.799 Z" opacity="0.1" style=""/>
  <path d="M 293.327 364.243 C 292.177 365.286 291.201 366.236 291.201 366.236 C 291.201 366.236 277.847 370.934 275.28 376.841 C 275.28 376.841 273.225 365.315 268.86 365.169 C 268.86 365.169 273.559 363.102 274.914 361.332 L 288.078 360.561 C 288.078 360.561 290.646 362.128 293.327 364.243 Z" opacity="0.1" style=""/>
  <path d="M 293.127 319.067 L 296.08 323.965 L 296.979 339.237 C 296.979 339.237 297.236 353.933 296.979 354.508 L 297.236 353.933 C 297.236 353.933 296.722 359.696 295.182 360.704 C 293.641 361.713 290.174 365.084 290.174 365.084 C 290.174 365.084 276.82 369.78 274.252 375.688 C 274.252 375.688 272.197 364.161 267.833 364.017 C 267.833 364.017 274.381 361.136 274.252 359.263 C 274.252 359.263 279.26 354.221 279.645 352.925 C 280.03 351.627 282.531 351.483 282.531 351.483 C 282.531 351.483 283.112 342.552 281.956 341.112 C 280.8 339.67 280.158 336.933 280.158 336.933 Z" fill="#eaeaf2" style=""/>
  <path d="M 260.467 377.208 C 256.548 378.32 254.017 375.901 251.911 372.154 C 251.063 370.657 251.489 369.458 252.599 368.519 L 253 368.697 C 253 368.697 260.061 372.132 260.467 377.208 Z" opacity="0.1" style=""/>
  <path d="M 258.844 381.813 C 254.222 389.016 245.619 379.001 244.977 376.984 C 244.746 376.253 243.867 375.601 242.856 375.077 C 241.572 374.447 240.24 373.952 238.875 373.595 L 246.518 366.611 L 247.982 367.268 L 252.486 369.29 C 252.486 369.29 263.466 374.609 258.844 381.813 Z" fill="#ffc4d0" style=""/>
  <path d="M 247.982 367.268 C 243.77 369.516 242.871 372.749 242.845 375.077 C 241.562 374.447 240.229 373.952 238.865 373.595 L 246.507 366.611 Z" opacity="0.1" style=""/>
  <path d="M 241.253 379.72 C 241.253 379.72 228.927 368.772 223.021 364.017 C 222.281 363.427 221.594 362.759 220.967 362.024 C 222.713 360.79 224.017 359.984 224.017 359.984 L 239.209 360.675 C 239.615 361.465 239.856 362 239.856 362 L 248.074 368.051 C 238.172 371.653 241.253 379.72 241.253 379.72 Z" opacity="0.1" style=""/>
  <path d="M 224.819 322.238 L 222.379 323.822 C 222.379 323.822 219.425 334.339 220.196 341.254 C 220.196 341.254 217.885 351.196 218.784 352.781 C 218.784 352.781 217.628 358.111 223.534 362.865 C 229.441 367.619 241.767 378.568 241.767 378.568 C 241.767 378.568 238.686 370.501 248.572 366.899 L 240.355 360.848 C 240.355 360.848 237.597 354.705 234.962 353.356 C 234.962 353.356 232.908 351.052 234.191 349.467 C 235.475 347.881 236.503 346.154 236.503 344.568 C 236.503 342.983 237.017 335.493 237.017 335.493 L 238.557 327.424 Z" fill="#eaeaf2" style=""/>
  <path d="M 262.183 315.392 L 257.175 315.392 C 257.144 315.36 257.117 315.325 257.092 315.289 L 257.175 314.815 L 257.817 312.948 L 262.121 314.815 Z" opacity="0.1" style=""/>
  <path d="M 263.8 305.634 C 263.8 305.634 259.456 309.704 257.175 305.634 C 257.175 305.634 255.12 312.516 257.175 314.821 L 263.338 314.821 C 263.338 314.821 266.568 308.55 263.8 305.634 Z" fill="#bc8487" style=""/>
  <path d="M 269.676 292.27 L 276.147 294.143 C 276.147 294.143 270.015 312.009 268.664 312.009 L 260.899 307.831 Z" opacity="0.1" style=""/>
  <path d="M 271.042 294.576 L 260.672 306.908 L 260.385 307.254 L 260.01 307.007 L 269.075 291.493 L 269.296 291.903 C 269.808 292.849 270.392 293.743 271.042 294.576 Z" opacity="0.1" style=""/>
  <path d="M 269.162 291.695 L 275.634 293.568 C 275.634 293.568 269.501 311.432 268.15 311.432 L 260.385 307.254 Z" fill="#eaeaf2" style=""/>
  <path d="M 248.403 290.288 L 242.794 292.27 C 242.794 292.27 248.316 311 249.857 312.009 L 259.871 307.831 Z" opacity="0.1" style=""/>
  <path d="M 260.672 306.908 L 260.385 307.254 C 260.385 307.254 246.903 298.466 247.93 296.016 C 248.444 294.76 248.747 292.145 248.906 289.891 L 248.906 289.54 Z" opacity="0.1" style=""/>
  <path d="M 248.916 289.713 L 243.308 291.695 C 243.308 291.695 248.829 310.423 250.37 311.432 L 260.385 307.254 Z" fill="#eaeaf2" style=""/>
  <path d="M 235.558 320.307 C 235.558 320.307 238.937 320.98 238.875 324.917 C 238.814 328.853 240.267 319.828 240.267 319.828 Z" opacity="0.1" style=""/>
  <path d="M 236.328 332.409 C 236.328 332.409 235.388 338.361 236.328 343.744 C 237.268 349.126 237.186 350.948 237.915 351.236 C 238.644 351.523 236.328 332.409 236.328 332.409 Z" opacity="0.1" style=""/>
  <path d="M 279.47 331.832 C 278.322 331.996 277.584 333.283 277.929 334.524 C 278.361 336.933 279.47 331.832 279.47 331.832 Z" opacity="0.1" style=""/>
  <path d="M 220.751 352.002 C 220.751 352.002 231.757 350.948 233.591 353.154 C 235.424 355.362 220.751 352.002 220.751 352.002 Z" opacity="0.1" style=""/>
  <path d="M 284.606 352.838 C 284.606 352.838 292.654 351.725 294.539 353.263" opacity="0.1" style=""/>
  <path d="M 287.863 354.306 C 287.863 354.306 292.654 354.498 293.769 355.171" opacity="0.1" style=""/>
  <path d="M 288.803 356.238 C 288.803 356.238 293.168 356.048 293.769 356.815" opacity="0.1" style=""/>
  <path d="M 227.238 383.322 C 227.238 383.322 230.977 385.507 230.596 387.736 C 230.217 389.968 227.238 383.322 227.238 383.322 Z" opacity="0.1" style=""/>
  <path d="M 224.001 384.384 C 224.001 384.384 229.708 392.687 228.932 395.425 C 228.157 398.162 224.001 384.384 224.001 384.384 Z" opacity="0.1" style=""/>
  <path d="M 285.167 385.761 C 285.167 385.761 282.341 388.372 282.418 390.527" opacity="0.1" style=""/>
  <path d="M 219.939 437.204 C 219.939 437.204 219.939 439.654 223.981 443.256" opacity="0.1" style=""/>
  <path d="M 291.283 431.441 C 291.283 431.441 290.852 436.536 286.918 439.175" opacity="0.1" style=""/>
  <g opacity="0.1" transform="matrix(0.513599, 0, 0, 0.576277, -0.446338, 8.067649)" style="">
    <path d="M568.83,464.81c0-.69-.12-1.4-.18-2.1a20.17,20.17,0,0,0,.14,4.58A18.64,18.64,0,0,0,568.83,464.81Z" transform="translate(-95.23 -30.18)"/>
    <path d="M567.24,492.75c.15-2.9-2.37-5.23-3.1-8a2.7,2.7,0,0,1-.08-.41,7.71,7.71,0,0,0,.08,3.41c.59,2.29,2.37,4.25,2.93,6.47C567.12,493.7,567.22,493.23,567.24,492.75Z" transform="translate(-95.23 -30.18)"/>
    <path d="M637.18,480.26a13.33,13.33,0,0,1-3.57,4.39c-2.33,2.15-5.22,4.46-8.31,3.76-4.59-1-6.17-8-10.85-8.48s-7.79,6-12.52,5.87c-2-.05-3.8-1.36-5.64-2.27-3.22-1.59-8.51-2.56-12-1.36-5.23,1.79-7,6.63-10.36,10.48a16.87,16.87,0,0,1-4.4,3.58,2.12,2.12,0,0,1-1.13.35,1.39,1.39,0,0,1-1.12-.9v.07a15.39,15.39,0,0,0-.19,2.24,1.65,1.65,0,0,0,1.31,1.59,2.12,2.12,0,0,0,1.13-.35,16.87,16.87,0,0,0,4.4-3.58c3.38-3.85,5.13-8.69,10.36-10.48,3.53-1.2,8.82-.23,12,1.36,1.84.91,3.6,2.22,5.64,2.27,4.73.12,7.82-6.39,12.52-5.87s6.26,7.44,10.85,8.48c3.09.7,6-1.61,8.31-3.76a13.33,13.33,0,0,0,3.57-4.39,8.44,8.44,0,0,0,.43-4.54A7.07,7.07,0,0,1,637.18,480.26Z" transform="translate(-95.23 -30.18)"/>
  </g>
  <path d="M 207.443 460.042 C 207.443 460.042 211.639 458.591 213.38 461.345" opacity="0.1" style=""/>
  <path d="M 304.653 460.619 C 304.653 460.619 297.703 460.164 297.976 462.274" opacity="0.1" style=""/>
  <ellipse cx="443.39" cy="453.728" rx="13.831" ry="2.623" opacity="0.1" style="fill: rgb(233, 185, 73);"/>
  <ellipse cx="46.338" cy="475.245" rx="13.831" ry="2.623" fill="#2caeba" opacity="0.1" style=""/>
  <ellipse cx="99.839" cy="489.311" rx="13.831" ry="2.623" fill="#2caeba" opacity="0.1" style=""/>
  <ellipse cx="413.114" cy="481.826" rx="20.652" ry="3.919" style="fill: rgb(233, 185, 73);"/>
  <path d="M 421.655 475.417 C 422.596 474.555 423.282 473.392 423.622 472.081 C 423.879 470.761 423.376 469.2 422.245 468.686 C 420.982 468.146 419.632 469.13 418.61 470.122 C 417.587 471.113 416.411 472.248 415.071 472.035 C 416.474 470.61 417.108 468.464 416.74 466.382 C 416.68 465.958 416.519 465.559 416.272 465.23 C 415.574 464.389 414.3 464.746 413.463 465.414 C 410.792 467.518 410.048 471.591 410.032 475.252 C 409.76 473.93 409.991 472.554 409.981 471.216 C 409.97 469.88 409.647 468.335 408.625 467.627 C 407.994 467.247 407.286 467.059 406.571 467.085 C 405.369 467.034 404.033 467.172 403.212 468.157 C 402.184 469.378 402.462 471.431 403.345 472.767 C 404.228 474.103 405.58 474.962 406.822 475.891 C 407.816 476.555 408.665 477.463 409.303 478.546 C 409.38 478.697 409.442 478.859 409.488 479.025 L 416.992 479.025 C 418.684 478.064 420.252 476.85 421.655 475.417 Z" style="fill: rgb(233, 185, 73);"/>
  <path d="M 100.553 424.872 C 100.553 424.872 103.378 429.015 99.254 435.245 C 95.13 441.476 91.73 446.771 93.09 450.672 C 93.09 450.672 99.315 439.061 104.389 438.899 C 109.465 438.738 106.126 431.858 100.553 424.872 Z" style="fill: rgb(233, 185, 73);"/>
  <path d="M 100.553 424.872 C 100.799 425.274 100.993 425.711 101.128 426.175 C 106.069 432.686 108.704 438.766 103.954 438.917 C 99.531 439.061 94.226 447.936 92.952 450.177 C 92.992 450.35 93.044 450.517 93.101 450.69 C 93.101 450.69 99.326 439.079 104.4 438.917 C 109.474 438.755 106.126 431.858 100.553 424.872 Z" opacity="0.1" style=""/>
  <path d="M 105.797 430.151 C 105.797 431.609 105.654 432.79 105.473 432.79 C 105.293 432.79 105.15 431.609 105.15 430.151 C 105.15 428.693 105.329 429.379 105.509 429.379 C 105.69 429.379 105.797 428.693 105.797 430.151 Z" fill="#ffd037" style=""/>
  <path d="M 107.6 431.891 C 106.46 432.59 105.463 433.01 105.381 432.832 C 105.299 432.652 106.146 431.944 107.286 431.246 C 108.427 430.549 107.98 431.055 108.062 431.246 C 108.144 431.436 108.74 431.194 107.6 431.891 Z" fill="#ffd037" style=""/>
  <path d="M 85.654 424.872 C 85.654 424.872 82.829 429.015 86.953 435.245 C 91.077 441.476 94.477 446.771 93.116 450.672 C 93.116 450.672 86.897 439.061 81.817 438.899 C 76.738 438.738 80.071 431.858 85.654 424.872 Z" style="fill: rgb(233, 185, 73);"/>
  <path d="M 85.654 424.872 C 85.406 425.274 85.211 425.711 85.073 426.175 C 80.133 432.686 77.503 438.766 82.249 438.917 C 86.676 439.061 91.981 447.936 93.255 450.177 C 93.213 450.351 93.162 450.522 93.101 450.69 C 93.101 450.69 86.881 439.079 81.801 438.917 C 76.723 438.755 80.071 431.858 85.654 424.872 Z" opacity="0.1" style="fill: rgb(233, 185, 73);"/>
  <path d="M 80.405 430.151 C 80.405 431.609 80.554 432.79 80.733 432.79 C 80.913 432.79 81.057 431.609 81.057 430.151 C 81.057 428.693 80.877 429.379 80.697 429.379 C 80.518 429.379 80.405 428.693 80.405 430.151 Z" fill="#ffd037" style=""/>
  <path d="M 78.607 431.891 C 79.747 432.59 80.738 433.01 80.826 432.832 C 80.913 432.652 80.056 431.944 78.915 431.246 C 77.775 430.549 78.227 431.055 78.14 431.246 C 78.052 431.436 77.467 431.194 78.607 431.891 Z" fill="#ffd037" style=""/>
  <path d="M 81.304 450.148 C 81.304 450.148 89.193 449.871 91.576 447.976 C 93.958 446.079 103.712 443.804 104.297 446.851 C 104.883 449.9 116.157 462.002 107.25 462.083 C 98.345 462.163 86.552 460.526 84.18 458.908 C 81.807 457.288 81.304 450.148 81.304 450.148 Z" fill="#a8a8a8" style=""/>
  <path d="M 107.405 461.021 C 98.499 461.103 86.707 459.467 84.334 457.847 C 82.531 456.607 81.807 452.177 81.565 450.137 L 81.304 450.137 C 81.304 450.137 81.817 457.272 84.175 458.895 C 86.532 460.521 98.34 462.152 107.245 462.072 C 109.814 462.072 110.702 461.021 110.656 459.502 C 110.296 460.435 109.315 461.005 107.405 461.021 Z" opacity="0.2" style=""/>
</svg>